<mxfile host="app.diagrams.net" agent="Mozilla/5.0 (Windows NT 10.0; Win64; x64) AppleWebKit/537.36 (KHTML, like Gecko) Chrome/130.0.0.0 Safari/537.36" version="24.8.4">
  <diagram name="Page-1" id="Ngv0-qLj1KZr1NmHaaN_">
    <mxGraphModel dx="1050" dy="609" grid="1" gridSize="10" guides="1" tooltips="1" connect="1" arrows="1" fold="1" page="1" pageScale="1" pageWidth="827" pageHeight="1169" math="0" shadow="0">
      <root>
        <mxCell id="0" />
        <mxCell id="1" parent="0" />
        <mxCell id="e6d4Bs1kVbdJXmH7IMhu-4" value="User" style="shape=umlActor;verticalLabelPosition=bottom;verticalAlign=top;html=1;outlineConnect=0;" parent="1" vertex="1">
          <mxGeometry x="80" y="520" width="80" height="120" as="geometry" />
        </mxCell>
        <mxCell id="e6d4Bs1kVbdJXmH7IMhu-5" value="Admin" style="shape=umlActor;verticalLabelPosition=bottom;verticalAlign=top;html=1;outlineConnect=0;" parent="1" vertex="1">
          <mxGeometry x="680" y="520" width="80" height="120" as="geometry" />
        </mxCell>
        <mxCell id="e6d4Bs1kVbdJXmH7IMhu-7" value="sign up" style="ellipse;whiteSpace=wrap;html=1;align=center;" parent="1" vertex="1">
          <mxGeometry x="361" y="170" width="120" height="60" as="geometry" />
        </mxCell>
        <mxCell id="e6d4Bs1kVbdJXmH7IMhu-8" value="sign in" style="ellipse;whiteSpace=wrap;html=1;align=center;" parent="1" vertex="1">
          <mxGeometry x="362" y="250" width="120" height="60" as="geometry" />
        </mxCell>
        <mxCell id="e6d4Bs1kVbdJXmH7IMhu-9" value="verify access" style="ellipse;whiteSpace=wrap;html=1;align=center;" parent="1" vertex="1">
          <mxGeometry x="362" y="332" width="120" height="60" as="geometry" />
        </mxCell>
        <mxCell id="e6d4Bs1kVbdJXmH7IMhu-10" value="recovery" style="ellipse;whiteSpace=wrap;html=1;align=center;" parent="1" vertex="1">
          <mxGeometry x="362" y="410" width="120" height="60" as="geometry" />
        </mxCell>
        <mxCell id="e6d4Bs1kVbdJXmH7IMhu-11" value="password reset" style="ellipse;whiteSpace=wrap;html=1;align=center;" parent="1" vertex="1">
          <mxGeometry x="360" y="490" width="120" height="60" as="geometry" />
        </mxCell>
        <mxCell id="e6d4Bs1kVbdJXmH7IMhu-75" value="list users" style="ellipse;whiteSpace=wrap;html=1;align=center;" parent="1" vertex="1">
          <mxGeometry x="360" y="570" width="120" height="60" as="geometry" />
        </mxCell>
        <mxCell id="e6d4Bs1kVbdJXmH7IMhu-76" value="add user" style="ellipse;whiteSpace=wrap;html=1;align=center;" parent="1" vertex="1">
          <mxGeometry x="360" y="648" width="120" height="60" as="geometry" />
        </mxCell>
        <mxCell id="e6d4Bs1kVbdJXmH7IMhu-77" value="edit user" style="ellipse;whiteSpace=wrap;html=1;align=center;" parent="1" vertex="1">
          <mxGeometry x="358" y="728" width="120" height="60" as="geometry" />
        </mxCell>
        <mxCell id="e6d4Bs1kVbdJXmH7IMhu-79" value="remove user" style="ellipse;whiteSpace=wrap;html=1;align=center;" parent="1" vertex="1">
          <mxGeometry x="361" y="810" width="120" height="60" as="geometry" />
        </mxCell>
        <mxCell id="e6d4Bs1kVbdJXmH7IMhu-83" value="&lt;font style=&quot;font-size: 14px;&quot;&gt;Use Case Diagram - flexibase-auth module&lt;/font&gt;" style="text;html=1;align=center;verticalAlign=middle;resizable=0;points=[];autosize=1;strokeColor=none;fillColor=none;" parent="1" vertex="1">
          <mxGeometry x="269" y="970" width="290" height="30" as="geometry" />
        </mxCell>
        <mxCell id="WXZhwg0EZCAnPt1mYIEM-1" value="" style="endArrow=classic;html=1;rounded=0;entryX=0;entryY=0.5;entryDx=0;entryDy=0;" parent="1" source="e6d4Bs1kVbdJXmH7IMhu-4" target="e6d4Bs1kVbdJXmH7IMhu-7" edge="1">
          <mxGeometry width="50" height="50" relative="1" as="geometry">
            <mxPoint x="390" y="430" as="sourcePoint" />
            <mxPoint x="440" y="380" as="targetPoint" />
          </mxGeometry>
        </mxCell>
        <mxCell id="WXZhwg0EZCAnPt1mYIEM-3" value="" style="endArrow=classic;html=1;rounded=0;entryX=0;entryY=0.5;entryDx=0;entryDy=0;" parent="1" source="e6d4Bs1kVbdJXmH7IMhu-4" target="e6d4Bs1kVbdJXmH7IMhu-8" edge="1">
          <mxGeometry width="50" height="50" relative="1" as="geometry">
            <mxPoint x="390" y="430" as="sourcePoint" />
            <mxPoint x="440" y="380" as="targetPoint" />
          </mxGeometry>
        </mxCell>
        <mxCell id="WXZhwg0EZCAnPt1mYIEM-4" value="" style="endArrow=classic;html=1;rounded=0;entryX=0;entryY=0.5;entryDx=0;entryDy=0;" parent="1" source="e6d4Bs1kVbdJXmH7IMhu-4" target="e6d4Bs1kVbdJXmH7IMhu-9" edge="1">
          <mxGeometry width="50" height="50" relative="1" as="geometry">
            <mxPoint x="390" y="530" as="sourcePoint" />
            <mxPoint x="440" y="480" as="targetPoint" />
          </mxGeometry>
        </mxCell>
        <mxCell id="WXZhwg0EZCAnPt1mYIEM-5" value="" style="endArrow=classic;html=1;rounded=0;entryX=0;entryY=0.5;entryDx=0;entryDy=0;" parent="1" source="e6d4Bs1kVbdJXmH7IMhu-4" target="e6d4Bs1kVbdJXmH7IMhu-10" edge="1">
          <mxGeometry width="50" height="50" relative="1" as="geometry">
            <mxPoint x="390" y="530" as="sourcePoint" />
            <mxPoint x="440" y="480" as="targetPoint" />
          </mxGeometry>
        </mxCell>
        <mxCell id="WXZhwg0EZCAnPt1mYIEM-6" value="" style="endArrow=classic;html=1;rounded=0;entryX=1;entryY=0.5;entryDx=0;entryDy=0;" parent="1" source="e6d4Bs1kVbdJXmH7IMhu-5" target="e6d4Bs1kVbdJXmH7IMhu-8" edge="1">
          <mxGeometry width="50" height="50" relative="1" as="geometry">
            <mxPoint x="390" y="630" as="sourcePoint" />
            <mxPoint x="610" y="320" as="targetPoint" />
          </mxGeometry>
        </mxCell>
        <mxCell id="WXZhwg0EZCAnPt1mYIEM-7" value="" style="endArrow=classic;html=1;rounded=0;entryX=1;entryY=0.5;entryDx=0;entryDy=0;" parent="1" source="e6d4Bs1kVbdJXmH7IMhu-5" target="e6d4Bs1kVbdJXmH7IMhu-75" edge="1">
          <mxGeometry width="50" height="50" relative="1" as="geometry">
            <mxPoint x="390" y="630" as="sourcePoint" />
            <mxPoint x="440" y="580" as="targetPoint" />
          </mxGeometry>
        </mxCell>
        <mxCell id="WXZhwg0EZCAnPt1mYIEM-8" value="" style="endArrow=classic;html=1;rounded=0;entryX=1;entryY=0.5;entryDx=0;entryDy=0;" parent="1" source="e6d4Bs1kVbdJXmH7IMhu-5" target="e6d4Bs1kVbdJXmH7IMhu-76" edge="1">
          <mxGeometry width="50" height="50" relative="1" as="geometry">
            <mxPoint x="390" y="630" as="sourcePoint" />
            <mxPoint x="440" y="580" as="targetPoint" />
          </mxGeometry>
        </mxCell>
        <mxCell id="WXZhwg0EZCAnPt1mYIEM-9" value="" style="endArrow=classic;html=1;rounded=0;entryX=1;entryY=0.5;entryDx=0;entryDy=0;" parent="1" source="e6d4Bs1kVbdJXmH7IMhu-5" target="e6d4Bs1kVbdJXmH7IMhu-77" edge="1">
          <mxGeometry width="50" height="50" relative="1" as="geometry">
            <mxPoint x="390" y="630" as="sourcePoint" />
            <mxPoint x="440" y="580" as="targetPoint" />
          </mxGeometry>
        </mxCell>
        <mxCell id="WXZhwg0EZCAnPt1mYIEM-10" value="" style="endArrow=classic;html=1;rounded=0;entryX=1;entryY=0.5;entryDx=0;entryDy=0;" parent="1" source="e6d4Bs1kVbdJXmH7IMhu-5" target="e6d4Bs1kVbdJXmH7IMhu-79" edge="1">
          <mxGeometry width="50" height="50" relative="1" as="geometry">
            <mxPoint x="390" y="630" as="sourcePoint" />
            <mxPoint x="440" y="580" as="targetPoint" />
          </mxGeometry>
        </mxCell>
        <mxCell id="PrF_G4wOBCt1CGtMBB4Q-1" value="" style="endArrow=classic;html=1;rounded=0;entryX=0;entryY=0.5;entryDx=0;entryDy=0;" edge="1" parent="1" source="e6d4Bs1kVbdJXmH7IMhu-4" target="e6d4Bs1kVbdJXmH7IMhu-11">
          <mxGeometry width="50" height="50" relative="1" as="geometry">
            <mxPoint x="250" y="590" as="sourcePoint" />
            <mxPoint x="300" y="540" as="targetPoint" />
          </mxGeometry>
        </mxCell>
      </root>
    </mxGraphModel>
  </diagram>
</mxfile>
